<?xml version="1.0" encoding="UTF-8" standalone="no"?>
<!-- Created with Inkscape (http://www.inkscape.org/) -->

<svg
   version="1.1"
   id="svg1"
   width="664.97333"
   height="664.97333"
   viewBox="0 0 664.97333 664.97333"
   sodipodi:docname="businessman-jet-pack-flying-publicdomainvectors.org.svg"
   inkscape:version="1.3.2 (091e20ef0f, 2023-11-25, custom)"
   xmlns:inkscape="http://www.inkscape.org/namespaces/inkscape"
   xmlns:sodipodi="http://sodipodi.sourceforge.net/DTD/sodipodi-0.dtd"
   xmlns="http://www.w3.org/2000/svg"
   xmlns:svg="http://www.w3.org/2000/svg">
  <defs
     id="defs1" />
  <sodipodi:namedview
     id="namedview1"
     pagecolor="#ffffff"
     bordercolor="#000000"
     borderopacity="0.25"
     inkscape:showpageshadow="2"
     inkscape:pageopacity="0.0"
     inkscape:pagecheckerboard="0"
     inkscape:deskcolor="#d1d1d1"
     inkscape:zoom="0.73052909"
     inkscape:cx="249.81894"
     inkscape:cy="487.31803"
     inkscape:window-width="1920"
     inkscape:window-height="1052"
     inkscape:window-x="0"
     inkscape:window-y="0"
     inkscape:window-maximized="1"
     inkscape:current-layer="g1">
    <inkscape:page
       x="0"
       y="0"
       inkscape:label="1"
       id="page1"
       width="664.97333"
       height="664.97333"
       margin="0"
       bleed="0"
       inkscape:export-filename="man.svg"
       inkscape:export-xdpi="96"
       inkscape:export-ydpi="96" />
  </sodipodi:namedview>
  <g
     id="g1"
     inkscape:groupmode="layer"
     inkscape:label="1">
    <path
       id="path2"
       d="M 664.97332,-0.00398671 H 0 V 664.97177 H 664.97332 V -0.00398671"
       style="fill:#b8dbef;fill-opacity:1;fill-rule:evenodd;stroke:none;stroke-width:0.133333" />
    <path
       id="path3"
       d="M 54.913065,84.926678 82.464531,98.561344 123.79426,69.449345 81.839065,88.980011 54.913065,84.926678"
       style="fill:#ffffff;fill-opacity:1;fill-rule:evenodd;stroke:none;stroke-width:0.133333" />
    <path
       id="path4"
       d="M 119.34693,98.934677 139.47066,112.39734 168.424,83.033345 138.78266,102.82001 119.34693,98.934677"
       style="fill:#ffffff;fill-opacity:1;fill-rule:evenodd;stroke:none;stroke-width:0.133333" />
    <path
       id="path5"
       d="M 64.331198,121.98934 84.456265,135.45201 105.2688,111.61468 83.768265,125.87601 64.331198,121.98934"
       style="fill:#ffffff;fill-opacity:1;fill-rule:evenodd;stroke:none;stroke-width:0.133333" />
    <path
       id="path6"
       d="m 611.51998,501.736 -20.32399,11.89467 -30.484,-25.39867 30.94666,17.04 19.86133,-3.536"
       style="fill:#ffffff;fill-opacity:1;fill-rule:evenodd;stroke:none;stroke-width:0.133333" />
    <path
       id="path7"
       d="m 563.99199,513.956 -14.84534,11.74533 -21.35466,-25.61733 21.86266,17.26133 14.33734,-3.38933"
       style="fill:#ffffff;fill-opacity:1;fill-rule:evenodd;stroke:none;stroke-width:0.133333" />
    <path
       id="path8"
       d="m 604.57332,534.0692 -14.84533,11.74533 -15.352,-20.79453 15.86,12.43973 14.33733,-3.39053"
       style="fill:#ffffff;fill-opacity:1;fill-rule:evenodd;stroke:none;stroke-width:0.133333" />
    <path
       id="path9"
       d="m 341.78132,98.273344 h -3.85333 l 37.29333,-14.146666 c 6.65734,-15.104 21.76534,-25.658666 39.32267,-25.658666 1.904,0 3.77867,0.124 5.61333,0.364 9.2,-28.713333 36.12667,-49.5226656 67.87333,-49.5226656 26.37734,0 49.424,14.3626666 61.74134,35.6853326 2.872,-0.5 5.832,-0.761333 8.85066,-0.761333 20.48534,0 38.18667,12.034666 46.40533,29.410665 2.18,-0.401333 4.428,-0.612 6.72267,-0.612 13.09067,0 24.59867,6.829334 31.15333,17.118667 l 19.66934,7.461333 h -320.792 v 0.661333"
       style="fill:#ffffff;fill-opacity:1;fill-rule:evenodd;stroke:none;stroke-width:0.133333" />
    <path
       id="path10"
       d="m 11.510933,283.56534 28.746399,-14.46133 c -0.0104,-0.33067 -0.0152,-0.66134 -0.0152,-0.99467 0,-19.34267 16.166667,-35.27867 36.869333,-37.23333 8.619733,-26.51067 35.618265,-45.88 67.553865,-45.88 30.30533,0 56.16666,17.444 66.09466,41.88666 20.132,2.44134 35.684,18.13467 35.684,37.10667 0,1.92 -0.15866,3.804 -0.46666,5.648 l 27.68666,13.928 H 11.510933"
       style="fill:#ffffff;fill-opacity:1;fill-rule:evenodd;stroke:none;stroke-width:0.133333" />
    <path
       id="path11"
       d="m 653.54532,376.28267 -20.024,-9.14133 c 0.007,-0.20667 0.008,-0.41867 0.008,-0.628 0,-12.228 -11.26134,-22.30267 -25.68267,-23.53867 -6.00533,-16.76 -24.81466,-29.00666 -47.06133,-29.00666 -21.11067,0 -39.12667,11.02933 -46.04267,26.48133 -14.02533,1.544 -24.86,11.46533 -24.86,23.45866 0,1.21334 0.112,2.40667 0.32534,3.57067 l -19.288,8.804 h 182.62533"
       style="fill:#ffffff;fill-opacity:1;fill-rule:evenodd;stroke:none;stroke-width:0.133333" />
    <g
       id="g85">
      <path
         id="path14"
         d="m 2767.37,0.0117188 h 246.73 c 1.11,6.5976612 1.66,13.3788812 1.66,20.2890812 0,300.3402 0,1059.7392 0,1360.0792 0,33.17 -13.17,64.97 -36.62,88.41 -23.45,23.45 -55.25,36.62 -88.41,36.62 -0.01,0 -0.01,0 -0.01,0 -69.05,0 -125.04,-55.97 -125.04,-125.03 0,-300.34 0,-1059.739 0,-1360.0792 0,-6.8399 0.57,-13.62892 1.69,-20.2890812"
         style="fill:#ffffff;fill-opacity:1;fill-rule:evenodd;stroke:none"
         transform="matrix(0.13333333,0,0,-0.13333333,0,664.97333)" />
      <path
         id="path16"
         d="m 2501.65,2992.36 c 30.58,114.11 -37.13,231.38 -151.23,261.96 v 0 c -114.11,30.57 -231.39,-37.14 -261.96,-151.24 -48.97,-182.77 -120.06,-448.05 -169.03,-630.81 -30.57,-114.11 37.14,-231.39 151.24,-261.96 v 0 c 114.1,-30.57 231.39,37.14 261.96,151.24 48.97,182.76 120.05,448.05 169.02,630.81"
         style="fill:#37256a;fill-opacity:1;fill-rule:evenodd;stroke:none"
         transform="matrix(0.13333333,0,0,-0.13333333,0,664.97333)" />
      <path
         id="path17"
         d="m 2078.64,2144.32 c 104.86,-0.7 190.43,83.77 191.12,188.63 v 0 c 0.69,104.87 -83.76,190.44 -188.62,191.13 -86.96,0.57 -189.78,1.24 -276.73,1.82 -104.87,0.68 -190.44,-83.76 -191.12,-188.63 v -0.01 c -0.7,-104.87 83.77,-190.44 188.62,-191.13 86.95,-0.57 189.76,-1.25 276.73,-1.81"
         style="fill:#37256a;fill-opacity:1;fill-rule:evenodd;stroke:none"
         transform="matrix(0.13333333,0,0,-0.13333333,0,664.97333)" />
      <path
         id="path18"
         d="m 1793.87,2142.34 c 90.73,0 164.27,73.55 164.27,164.27 0,19.42 0,39.23 0,58.65 0,90.72 -73.54,164.28 -164.27,164.28 0,0 0,0 -0.02,0 -90.72,0 -164.27,-73.56 -164.27,-164.28 0,-19.42 0,-39.23 0,-58.65 0,-90.72 73.55,-164.27 164.27,-164.27 0.02,0 0.02,0 0.02,0"
         style="fill:#ffffff;fill-opacity:1;fill-rule:evenodd;stroke:none"
         transform="matrix(0.13333333,0,0,-0.13333333,0,664.97333)" />
      <path
         id="path19"
         d="m 1703.45,2142.22 c 101.97,0 184.63,82.66 184.63,184.64 v 0 c 0,101.96 -82.66,184.63 -184.63,184.63 -17.1,0 -34.41,0 -51.51,0 -101.97,0 -184.63,-82.67 -184.63,-184.63 v 0 c 0,-101.98 82.66,-184.64 184.63,-184.64 17.1,0 34.41,0 51.51,0"
         style="fill:#ec591b;fill-opacity:1;fill-rule:evenodd;stroke:none"
         transform="matrix(0.13333333,0,0,-0.13333333,0,664.97333)" />
      <path
         id="path20"
         d="m 1560.63,2087.33 c 0,-33.63 13.36,-65.85 37.14,-89.63 23.76,-23.79 56.02,-37.15 89.66,-37.15 v 0 c 33.61,0 65.87,13.36 89.65,37.15 23.78,23.78 37.14,56 37.14,89.63 0,126.16 0,318.62 0,444.77 0,33.61 -13.36,65.86 -37.14,89.65 -23.78,23.77 -56.04,37.13 -89.65,37.13 v 0 c -33.64,0 -65.9,-13.36 -89.66,-37.13 -23.78,-23.79 -37.14,-56.04 -37.14,-89.65 0,-126.15 0,-318.61 0,-444.77"
         style="fill:#413b38;fill-opacity:1;fill-rule:evenodd;stroke:none"
         transform="matrix(0.13333333,0,0,-0.13333333,0,664.97333)" />
      <path
         id="path21"
         d="m 1462.08,2411.07 c 1.09,-21.43 10.64,-41.55 26.56,-55.93 15.92,-14.39 36.9,-21.85 58.33,-20.77 29.87,1.53 63.73,3.23 93.61,4.74 21.42,1.09 41.54,10.64 55.93,26.56 14.37,15.91 21.85,36.89 20.77,58.33 v 0 c -1.09,21.43 -10.64,41.55 -26.55,55.93 -15.93,14.38 -36.91,21.85 -58.33,20.76 -29.89,-1.51 -63.74,-3.22 -93.63,-4.73 -21.43,-1.09 -41.53,-10.65 -55.92,-26.56 -14.39,-15.91 -21.85,-36.9 -20.77,-58.32 0,0 0,0 0,-0.01"
         style="fill:#ec591b;fill-opacity:1;fill-rule:evenodd;stroke:none"
         transform="matrix(0.13333333,0,0,-0.13333333,0,664.97333)" />
      <path
         id="path22"
         d="m 1752.47,2403.97 c 12.1,-15.51 29.86,-25.56 49.38,-27.97 19.5,-2.41 39.18,3.02 54.68,15.12 0,0.01 0.01,0.01 0.01,0.01 15.49,12.1 25.55,29.85 27.96,49.37 2.41,19.52 -3.04,39.18 -15.12,54.69 -2.78,3.54 -5.56,7.11 -8.33,10.66 -12.09,15.49 -29.84,25.55 -49.36,27.96 -19.51,2.41 -39.19,-3.04 -54.68,-15.12 -0.01,-0.02 -0.01,-0.02 -0.01,-0.02 -15.51,-12.09 -25.56,-29.84 -27.97,-49.35 -2.42,-19.52 3.03,-39.19 15.13,-54.7 2.76,-3.54 5.54,-7.11 8.31,-10.65"
         style="fill:#ec591b;fill-opacity:1;fill-rule:evenodd;stroke:none"
         transform="matrix(0.13333333,0,0,-0.13333333,0,664.97333)" />
      <path
         id="path23"
         d="m 2218.1,1958.3 c 59.1,0.93 106.29,49.58 105.38,108.68 v 0.02 c -0.92,59.11 -49.59,106.28 -108.69,105.37 -145.47,-2.24 -404.13,-6.24 -549.62,-8.48 -59.11,-0.92 -106.28,-49.57 -105.38,-108.68 v 0 c 0.92,-59.13 49.59,-106.3 108.7,-105.38 145.47,2.24 404.13,6.23 549.61,8.47"
         style="fill:#413b38;fill-opacity:1;fill-rule:evenodd;stroke:none"
         transform="matrix(0.13333333,0,0,-0.13333333,0,664.97333)" />
      <path
         id="battery1"
         d="m 3223.54,3315.02 c 0,149.86 -121.66,271.52 -271.52,271.52 -149.85,0 -271.52,-121.66 -271.52,-271.52 V 1863.56 c 0,-149.88 121.67,-271.53 271.52,-271.53 149.86,0 271.52,121.65 271.52,271.53 v 1451.46"
         style="fill:#413b38;fill-opacity:1;fill-rule:evenodd;stroke:none"
         transform="matrix(0.13333333,0,0,-0.13333333,0,664.97333)" />
      <path
         id="battery2"
         d="m 2699.26,3315.02 c 0,149.86 -121.66,271.52 -271.52,271.52 -149.85,0 -271.52,-121.66 -271.52,-271.52 V 1863.56 c 0,-149.88 121.67,-271.53 271.52,-271.53 149.86,0 271.52,121.65 271.52,271.53 v 1451.46"
         style="fill:#413b38;fill-opacity:1;fill-rule:evenodd;stroke:none"
         transform="matrix(0.13333333,0,0,-0.13333333,0,664.97333)" />
      <path
         id="path26"
         d="m 2245.36,2539.89 c 6.14,22.57 3.06,46.64 -8.56,66.94 -11.62,20.29 -30.81,35.13 -53.38,41.26 0,0 0,0 -0.01,0 -22.56,6.13 -46.64,3.03 -66.93,-8.57 -20.28,-11.62 -35.13,-30.83 -41.25,-53.39 -42.73,-157.2 -133.56,-491.46 -176.28,-648.67 -6.14,-22.56 -3.04,-46.63 8.56,-66.92 11.63,-20.29 30.83,-35.13 53.39,-41.26 0,-0.01 0,-0.01 0,-0.01 22.56,-6.12 46.64,-3.05 66.93,8.57 20.29,11.62 35.13,30.82 41.27,53.38 42.71,157.22 133.55,491.47 176.26,648.67"
         style="fill:#4556f5;fill-opacity:1;fill-rule:evenodd;stroke:none"
         transform="matrix(0.13333333,0,0,-0.13333333,0,664.97333)" />
      <path
         id="path27"
         d="m 2442.15,1742.61 c 62.73,108.65 25.51,247.59 -83.15,310.31 v 0 c -108.64,62.73 -247.57,25.5 -310.31,-83.14 -91.69,-158.81 -220.06,-381.19 -311.76,-539.99 -62.73,-108.67 -25.5,-247.59 83.14,-310.32 0,-0.01 0,-0.01 0.01,-0.01 108.65,-62.72 247.58,-25.49 310.31,83.15 91.69,158.82 220.07,381.19 311.76,540"
         style="fill:#2f2a28;fill-opacity:1;fill-rule:evenodd;stroke:none"
         transform="matrix(0.13333333,0,0,-0.13333333,0,664.97333)" />
      <path
         id="path28"
         d="m 2116.31,1328.18 c -5.04,53.63 -31.17,103.07 -72.65,137.42 -41.49,34.36 -94.91,50.83 -148.56,45.8 v 0 c -53.63,-5.03 -103.06,-31.17 -137.42,-72.66 -34.36,-41.49 -50.82,-94.92 -45.79,-148.55 19.79,-210.75 50.62,-539.042 70.42,-749.788 5.04,-53.632 31.18,-103.05 72.66,-137.41 41.48,-34.383 94.92,-50.844 148.54,-45.812 0.02,0 0.02,0 0.02,0 53.63,5.05 103.05,31.179 137.41,72.66 34.36,41.492 50.84,94.93 45.81,148.551 -19.8,210.738 -50.65,539.049 -70.44,749.789"
         style="fill:#2f2a28;fill-opacity:1;fill-rule:evenodd;stroke:none"
         transform="matrix(0.13333333,0,0,-0.13333333,0,664.97333)" />
      <path
         id="path29"
         d="m 2512.56,2433.93 c -91.9,19.83 -187.9,2.34 -266.9,-48.6 -79,-50.94 -134.52,-131.18 -154.36,-223.08 -10.93,-50.61 -22.18,-102.73 -33.1,-153.33 -19.83,-91.89 -2.37,-187.9 48.58,-266.91 50.95,-78.99 131.2,-134.53 223.09,-154.36 v 0 c 91.9,-19.84 187.89,-2.35 266.9,48.6 79,50.95 134.53,131.18 154.37,223.08 10.92,50.6 22.18,102.73 33.1,153.33 19.83,91.88 2.35,187.9 -48.6,266.91 -50.94,79 -131.2,134.52 -223.07,154.36 -0.01,0 -0.01,0 -0.01,0"
         style="fill:#2f2a28;fill-opacity:1;fill-rule:evenodd;stroke:none"
         transform="matrix(0.13333333,0,0,-0.13333333,0,664.97333)" />
      <path
         id="path30"
         d="m 2710.82,1863.62 c 0,56.94 -22.62,111.54 -62.87,151.78 -40.25,40.26 -94.85,62.87 -151.8,62.87 v 0 c -56.92,0 -111.53,-22.61 -151.77,-62.87 -40.26,-40.24 -62.88,-94.84 -62.88,-151.78 0,-209.84 0,-527.54 0,-737.38 0,-56.93 22.62,-111.53 62.88,-151.791 40.24,-40.258 94.85,-62.879 151.77,-62.879 v 0 c 56.95,0 111.55,22.621 151.8,62.879 40.25,40.261 62.87,94.861 62.87,151.791 0,209.84 0,527.54 0,737.38"
         style="fill:#413b38;fill-opacity:1;fill-rule:evenodd;stroke:none"
         transform="matrix(0.13333333,0,0,-0.13333333,0,664.97333)" />
      <path
         id="path31"
         d="m 2745.03,1096.71 c 0,119.47 -96.84,216.31 -216.29,216.31 h -0.01 c -119.46,0 -216.29,-96.84 -216.29,-216.31 0,-187.569 0,-457.671 0,-645.241 0,-119.469 96.83,-216.297 216.29,-216.297 h 0.01 c 119.45,0 216.29,96.828 216.29,216.297 0,187.57 0,457.672 0,645.241"
         style="fill:#413b38;fill-opacity:1;fill-rule:evenodd;stroke:none"
         transform="matrix(0.13333333,0,0,-0.13333333,0,664.97333)" />
      <path
         id="path32"
         d="m 2723.89,341.449 c 22.6,45.832 26.08,98.77 9.67,147.153 -16.42,48.41 -51.39,88.289 -97.22,110.898 -67.59,33.352 -129.23,63.77 -129.23,63.77 0,0 -127.51,-258.438 -206.83,-419.211 -34.13,-69.18 -5.71,-152.9301 63.46,-187.0473 0,-0.0117 0,-0.0117 0,-0.0117 46.88,-23.1211 101.04,-26.6914 150.53,-9.8984 49.52,16.8007 90.33,52.5703 113.45,99.4494 30.84,62.519 65.49,132.719 96.17,194.898"
         style="fill:#413b38;fill-opacity:1;fill-rule:evenodd;stroke:none"
         transform="matrix(0.13333333,0,0,-0.13333333,0,664.97333)" />
      <path
         id="path33"
         d="m 2161.21,446.762 c 22.6,45.82 26.09,98.75 9.67,147.14 -16.41,48.399 -51.39,88.289 -97.21,110.899 -67.59,33.359 -129.24,63.769 -129.24,63.769 0,0 -127.51,-258.429 -206.83,-419.211 -34.12,-69.179 -5.72,-152.918 63.45,-187.05 v 0 c 46.89,-23.149 101.05,-26.7 150.56,-9.911 49.49,16.793 90.3,52.571 113.44,99.454 30.84,62.519 65.48,132.707 96.16,194.91"
         style="fill:#2f2a28;fill-opacity:1;fill-rule:evenodd;stroke:none"
         transform="matrix(0.13333333,0,0,-0.13333333,0,664.97333)" />
      <path
         id="path34"
         d="m 2528.26,3045.82 c 5.37,57.51 -12.33,114.81 -49.21,159.26 -36.88,44.46 -89.9,72.45 -147.41,77.81 h -0.01 c -57.51,5.37 -114.78,-12.34 -159.25,-49.22 -44.46,-36.87 -72.44,-89.9 -77.81,-147.41 -18.07,-193.84 -44.42,-476.39 -62.49,-670.21 -5.36,-57.51 12.35,-114.81 49.21,-159.26 36.89,-44.46 89.91,-72.45 147.43,-77.82 v 0 c 57.51,-5.36 114.8,12.35 159.26,49.22 44.46,36.88 72.45,89.91 77.81,147.42 18.07,193.83 44.41,476.38 62.47,670.21"
         style="fill:#4556f5;fill-opacity:1;fill-rule:evenodd;stroke:none"
         transform="matrix(0.13333333,0,0,-0.13333333,0,664.97333)" />
      <path
         id="path35"
         d="m 2261.22,3127.33 c -24,-257.39 320,-987.62 320,-987.62 l 0.61,5.25 c 24,257.4 64.05,686.87 88.03,944.27 5.31,56.76 -11.16,113.21 -45.74,156.92 -34.57,43.7 -84.43,71.1 -138.62,76.15 v 0 c -54.2,5.05 -108.27,-12.66 -150.32,-49.21 -42.07,-36.57 -68.66,-89 -73.96,-145.76"
         style="fill:#ffffff;fill-opacity:1;fill-rule:evenodd;stroke:none"
         transform="matrix(0.13333333,0,0,-0.13333333,0,664.97333)" />
      <path
         id="path36"
         d="m 2589.86,3035.17 c 5.21,55.94 -12,111.67 -47.88,154.91 -35.86,43.24 -87.44,70.46 -143.37,75.68 -0.01,0 -0.01,0 -0.01,0 -55.93,5.21 -111.65,-12 -154.9,-47.87 -43.25,-35.88 -70.47,-87.45 -75.68,-143.39 -23.4,-250.94 -62.22,-667.37 -85.62,-918.31 -5.21,-55.93 12,-111.65 47.88,-154.9 35.86,-43.24 87.43,-70.46 143.38,-75.67 0,0 0,0 0.01,0 55.93,-5.23 111.64,12.01 154.88,47.87 43.26,35.87 70.48,87.44 75.7,143.38 23.4,250.94 62.21,667.37 85.61,918.3"
         style="fill:#ffffff;fill-opacity:1;fill-rule:evenodd;stroke:none"
         transform="matrix(0.13333333,0,0,-0.13333333,0,664.97333)" />
      <path
         id="path37"
         d="m 2570.44,3489.23 c -1.18,34.51 -16.03,67.12 -41.27,90.69 -25.24,23.56 -58.79,36.13 -93.31,34.94 v 0 c -34.51,-1.2 -67.12,-16.03 -90.69,-41.28 -23.54,-25.23 -36.12,-58.8 -34.94,-93.31 1.78,-51.39 3.82,-110.32 5.57,-161.72 1.2,-34.51 16.03,-67.13 41.27,-90.68 25.24,-23.57 58.81,-36.14 93.32,-34.95 0,0 0,0 0.01,0 34.49,1.19 67.12,16.04 90.67,41.28 23.57,25.24 36.13,58.8 34.94,93.3 -1.77,51.4 -3.79,110.34 -5.57,161.73"
         style="fill:#eb631a;fill-opacity:1;fill-rule:evenodd;stroke:none"
         transform="matrix(0.13333333,0,0,-0.13333333,0,664.97333)" />
      <path
         id="path38"
         d="m 2313.08,3349.67 c 8.46,-4.13 16.42,-7.74 25.42,-8.94 v 0 c 61.99,-8.31 120.24,40.63 152.21,120.64 -8.38,66.69 -46.19,115.26 -90.86,112.25 v 0 c -50.04,-3.35 -89.73,-70.18 -88.64,-149.24 l 1.87,-74.71"
         style="fill:#6a3117;fill-opacity:1;fill-rule:evenodd;stroke:none"
         transform="matrix(0.13333333,0,0,-0.13333333,0,664.97333)" />
      <path
         id="path39"
         d="m 2695.34,3745.18 -383.54,141.87 c 0,0 -59.55,-115.97 -114.96,-223.91 -23.67,-46.11 -26.46,-100.16 -7.67,-148.47 18.8,-48.3 57.39,-86.25 106.01,-104.23 v 0 c 109.5,-40.5 232,7.16 285.32,111.03 55.39,107.88 114.84,223.71 114.84,223.71"
         style="fill:#eb631a;fill-opacity:1;fill-rule:evenodd;stroke:none"
         transform="matrix(0.13333333,0,0,-0.13333333,0,664.97333)" />
      <path
         id="path40"
         d="m 2411.68,3516.65 -226.29,65.98 c 0.98,-10.39 3.41,-20.7 7.28,-30.62 11.94,-30.71 36.48,-54.84 67.4,-66.27 v 0 c 53.58,-19.82 112.07,-6.44 151.61,30.91"
         style="fill:#ffffff;fill-opacity:1;fill-rule:evenodd;stroke:none"
         transform="matrix(0.13333333,0,0,-0.13333333,0,664.97333)" />
      <path
         id="path41"
         d="m 2247.51,3759.83 42.25,142.92 32.62,47.09 118.18,-33.15 204.29,-71.84 58.38,-46.48 3.21,-46.22 -112.29,-208.93 -60.97,36.08 -11.89,104.87 -51.45,25.1 30.89,69.64 -201.11,50.16 -52.11,-69.24"
         style="fill:#2f2a28;fill-opacity:1;fill-rule:evenodd;stroke:none"
         transform="matrix(0.13333333,0,0,-0.13333333,0,664.97333)" />
      <path
         id="path42"
         d="m 2247.51,3759.83 42.25,142.92 32.62,47.09 118.18,-33.15 204.29,-71.84 58.38,-46.48 3.21,-46.22 -112.29,-208.93 -60.97,36.08 -11.89,104.87 -51.45,25.1 30.89,69.64 -201.11,50.16 z"
         style="fill:none;stroke:#100f0d;stroke-width:2.01394;stroke-linecap:round;stroke-linejoin:round;stroke-miterlimit:10;stroke-dasharray:none;stroke-opacity:1"
         transform="matrix(0.13333333,0,0,-0.13333333,0,664.97333)" />
      <path
         id="path43"
         d="m 2691.98,3808.94 c -24.7,16.18 -57.85,9.26 -74.02,-15.45 -24.22,-36.99 -58.45,-89.29 -82.67,-126.29 -16.18,-24.7 -9.26,-57.85 15.44,-74.03 1.84,-1.2 3.68,-2.39 5.52,-3.6 24.7,-16.17 57.85,-9.26 74.02,15.45 24.22,37 58.45,89.29 82.68,126.29 16.17,24.72 9.26,57.85 -15.45,74.02 -1.84,1.2 -3.67,2.42 -5.52,3.61"
         style="fill:#2f2a28;fill-opacity:1;fill-rule:evenodd;stroke:none"
         transform="matrix(0.13333333,0,0,-0.13333333,0,664.97333)" />
      <path
         id="path44"
         d="m 2580.41,3693.13 c 23.3,-18.76 22.12,-58.94 -2.63,-89.65 -24.74,-30.72 -63.75,-40.42 -87.03,-21.66 -23.31,18.77 -22.13,58.93 2.62,89.66 24.75,30.71 63.74,40.42 87.04,21.65"
         style="fill:#eb631a;fill-opacity:1;fill-rule:evenodd;stroke:none"
         transform="matrix(0.13333333,0,0,-0.13333333,0,664.97333)" />
      <path
         id="path45"
         d="m 2705.26,3785.99 c 22.03,19.65 23.98,53.45 4.32,75.5 -44.83,50.29 -121.45,136.2 -166.3,186.49 -19.66,22.04 -53.44,23.97 -75.49,4.32 -17.05,-15.21 -36.93,-32.92 -53.98,-48.12 -22.04,-19.67 -23.97,-53.46 -4.32,-75.51 44.84,-50.28 121.46,-136.2 166.3,-186.49 19.65,-22.03 53.46,-23.98 75.49,-4.31 17.06,15.2 36.92,32.91 53.98,48.12"
         style="fill:#2f2a28;fill-opacity:1;fill-rule:evenodd;stroke:none"
         transform="matrix(0.13333333,0,0,-0.13333333,0,664.97333)" />
      <path
         id="path46"
         d="m 2561.17,3928.51 c 9.58,38.37 3.52,78.96 -16.85,112.87 -20.36,33.89 -53.37,58.31 -91.73,67.9 -7.22,1.79 -14.46,3.6 -21.67,5.4 -38.37,9.57 -78.98,3.52 -112.88,-16.86 -33.9,-20.36 -58.33,-53.36 -67.89,-91.73 v 0 c -9.58,-38.37 -3.51,-78.97 16.84,-112.87 20.37,-33.91 53.37,-58.33 91.74,-67.9 7.21,-1.8 14.47,-3.61 21.68,-5.41 38.36,-9.57 78.97,-3.51 112.87,16.86 33.9,20.36 58.32,53.36 67.89,91.73 v 0.01"
         style="fill:#2f2a28;fill-opacity:1;fill-rule:evenodd;stroke:none"
         transform="matrix(0.13333333,0,0,-0.13333333,0,664.97333)" />
      <path
         id="path47"
         d="m 2610.03,3273.59 c -0.09,14.42 -5.88,28.19 -16.13,38.33 -10.25,10.13 -24.09,15.78 -38.5,15.69 -64.08,-0.37 -170,-0.97 -234.08,-1.34 -14.41,-0.08 -28.19,-5.89 -38.32,-16.13 -10.12,-10.24 -15.78,-24.09 -15.69,-38.49 0,-0.02 0,-0.02 0,-0.02 0.08,-14.4 5.88,-28.19 16.12,-38.31 10.25,-10.14 24.1,-15.78 38.51,-15.7 64.09,0.37 170,0.97 234.09,1.34 14.4,0.08 28.18,5.89 38.32,16.14 10.11,10.23 15.76,24.09 15.68,38.49 v 0"
         style="fill:#ffffff;fill-opacity:1;fill-rule:evenodd;stroke:none"
         transform="matrix(0.13333333,0,0,-0.13333333,0,664.97333)" />
      <path
         id="path48"
         d="m 2575.65,3174.68 c 2.07,30.9 -8.22,61.35 -28.62,84.67 -20.37,23.32 -49.19,37.58 -80.09,39.65 -13.28,0.88 -26.82,1.79 -40.09,2.68 -30.9,2.08 -61.37,-8.21 -84.68,-28.61 -23.31,-20.38 -37.58,-49.2 -39.65,-80.1 v -0.01 c -2.06,-30.9 8.23,-61.35 28.62,-84.68 20.38,-23.3 49.19,-37.57 80.09,-39.64 13.28,-0.89 26.82,-1.79 40.1,-2.68 30.91,-2.07 61.37,8.22 84.69,28.61 23.3,20.38 37.56,49.2 39.63,80.1 0,0 0,0 0,0.01"
         style="fill:#ffffff;fill-opacity:1;fill-rule:evenodd;stroke:none"
         transform="matrix(0.13333333,0,0,-0.13333333,0,664.97333)" />
      <path
         id="path49"
         d="m 2869.38,3098.4 c 4.74,50.78 -10.87,101.35 -43.43,140.6 -32.55,39.25 -79.37,63.95 -130.14,68.69 v 0 c -50.77,4.74 -101.35,-10.89 -140.6,-43.45 -39.25,-32.55 -63.95,-79.36 -68.69,-130.13 -24.31,-260.81 -67.59,-725.08 -91.91,-985.87 -4.74,-50.76 10.89,-101.34 43.46,-140.59 32.55,-39.25 79.35,-63.95 130.12,-68.68 h 0.01 c 50.77,-4.74 101.34,10.89 140.59,43.43 39.25,32.56 63.96,79.38 68.69,130.15 24.33,260.79 67.61,725.06 91.9,985.85"
         style="fill:#4556f5;fill-opacity:1;fill-rule:evenodd;stroke:none"
         transform="matrix(0.13333333,0,0,-0.13333333,0,664.97333)" />
      <path
         id="path50"
         d="m 2887.53,2184.68 c -40.12,133.25 -180.68,208.77 -313.95,168.64 v 0 c -133.27,-40.14 -208.77,-180.68 -168.65,-313.95 20.09,-66.67 41.86,-139.03 61.95,-205.71 40.12,-133.26 180.68,-208.76 313.94,-168.64 v 0 c 133.26,40.13 208.76,180.69 168.65,313.96 -20.09,66.68 -41.86,139.02 -61.94,205.7"
         style="fill:#4556f5;fill-opacity:1;fill-rule:evenodd;stroke:none"
         transform="matrix(0.13333333,0,0,-0.13333333,0,664.97333)" />
      <path
         id="path51"
         d="m 2975.09,3124.46 c -21.91,51.5 -63.37,92.19 -115.3,113.11 -51.9,20.93 -109.99,20.38 -161.49,-1.54 0,0 0,0 -0.01,0 -51.48,-21.9 -92.18,-63.37 -113.1,-115.28 -20.92,-51.91 -20.38,-110 1.54,-161.51 79.73,-187.44 199.8,-469.68 279.54,-657.11 21.9,-51.49 63.38,-92.19 115.28,-113.12 51.91,-20.91 110.01,-20.36 161.52,1.55 v 0 c 51.49,21.9 92.18,63.37 113.09,115.28 20.93,51.91 20.38,110 -1.53,161.49 -79.74,187.45 -199.8,469.69 -279.54,657.13"
         style="fill:#45aef5;fill-opacity:1;fill-rule:evenodd;stroke:none"
         transform="matrix(0.13333333,0,0,-0.13333333,0,664.97333)" />
      <path
         id="path52"
         d="m 3045.6,2133.25 c 126.65,-0.23 229.67,101.91 230.55,228.54 v 0 c 0.42,60.64 -23.33,118.93 -66.02,162 -42.68,43.06 -100.76,67.33 -161.41,67.44 -58.09,0.11 -120.53,0.21 -178.63,0.33 -126.64,0.22 -229.67,-101.91 -230.56,-228.55 v 0 c -0.42,-60.63 23.34,-118.93 66.03,-161.99 42.68,-43.07 100.76,-67.34 161.4,-67.44 58.11,-0.11 120.53,-0.23 178.64,-0.33"
         style="fill:#4556f5;fill-opacity:1;fill-rule:evenodd;stroke:none"
         transform="matrix(0.13333333,0,0,-0.13333333,0,664.97333)" />
      <path
         id="path53"
         d="m 3026.9,2337.71 c 0,117.79 -95.49,213.28 -213.28,213.28 -5.12,0 -10.28,0 -15.41,0 -117.8,0 -213.28,-95.49 -213.28,-213.28 v 0 c 0,-117.79 95.48,-213.28 213.28,-213.28 5.13,0 10.29,0 15.41,0 117.79,0 213.28,95.49 213.28,213.28 v 0"
         style="fill:#ffffff;fill-opacity:1;fill-rule:evenodd;stroke:none"
         transform="matrix(0.13333333,0,0,-0.13333333,0,664.97333)" />
      <path
         id="path54"
         d="m 2345.1,3258.19 c -16.51,2.18 -33.21,-2.29 -46.41,-12.42 -13.22,-10.13 -21.87,-25.09 -24.05,-41.6 -2.07,-15.75 -4.31,-32.67 -6.38,-48.42 -2.2,-16.51 2.29,-33.2 12.42,-46.41 10.12,-13.22 25.1,-21.86 41.6,-24.05 v 0 c 16.51,-2.17 33.21,2.29 46.43,12.43 13.2,10.13 21.85,25.09 24.02,41.6 2.1,15.75 4.33,32.67 6.4,48.42 2.18,16.5 -2.29,33.2 -12.42,46.41 -10.14,13.22 -25.1,21.86 -41.6,24.04 -0.01,0 -0.01,0 -0.01,0"
         style="fill:#4556f5;fill-opacity:1;fill-rule:evenodd;stroke:none"
         transform="matrix(0.13333333,0,0,-0.13333333,0,664.97333)" />
      <path
         id="path55"
         d="m 2324.33,3136.79 c -27.71,2.27 -52.03,-18.35 -54.3,-46.06 -12.82,-156.91 -52.15,-637.18 -65.01,-794.09 -2.27,-27.71 18.37,-52.01 46.08,-54.28 v 0 c 27.71,-2.26 52.01,18.36 54.28,46.07 12.85,156.9 52.16,637.18 65.02,794.09 2.26,27.71 -18.36,52 -46.07,54.27 v 0"
         style="fill:#4556f5;fill-opacity:1;fill-rule:evenodd;stroke:none"
         transform="matrix(0.13333333,0,0,-0.13333333,0,664.97333)" />
      <path
         id="path56"
         d="m 3092.67,1925.66 c 57.91,0 104.86,46.95 104.86,104.85 v 0 c 0,57.91 -46.95,104.86 -104.86,104.86 -109.71,0 -280.91,0 -390.62,0 -57.9,0 -104.85,-46.95 -104.85,-104.86 v 0 c 0,-57.9 46.95,-104.85 104.85,-104.85 109.71,0 280.91,0 390.62,0"
         style="fill:#413b38;fill-opacity:1;fill-rule:evenodd;stroke:none"
         transform="matrix(0.13333333,0,0,-0.13333333,0,664.97333)" />
      <path
         id="path57"
         d="m 2566.93,2055.32 c 0,-66.39 53.83,-120.21 120.21,-120.21 v 0 c 66.4,0 120.21,53.82 120.21,120.21 0,132.89 0,345.73 0,478.61 0,66.39 -53.81,120.22 -120.21,120.22 v 0 c -66.38,0 -120.21,-53.83 -120.21,-120.22 0,-132.88 0,-345.72 0,-478.61"
         style="fill:#413b38;fill-opacity:1;fill-rule:evenodd;stroke:none"
         transform="matrix(0.13333333,0,0,-0.13333333,0,664.97333)" />
      <path
         id="path58"
         d="m 2714.87,2134.56 c 53.33,0 104.49,21.2 142.19,58.91 37.73,37.7 58.9,88.86 58.9,142.19 v 0 c 0,53.33 -21.17,104.48 -58.9,142.18 -37.7,37.72 -88.86,58.89 -142.19,58.89 -12.75,0 -25.59,0 -38.35,0 -53.33,0 -104.47,-21.17 -142.18,-58.89 -37.71,-37.7 -58.9,-88.85 -58.9,-142.18 v 0 c 0,-53.33 21.19,-104.49 58.9,-142.19 37.71,-37.71 88.85,-58.91 142.18,-58.91 12.76,0 25.6,0 38.35,0"
         style="fill:#ec591b;fill-opacity:1;fill-rule:evenodd;stroke:none"
         transform="matrix(0.13333333,0,0,-0.13333333,0,664.97333)" />
      <path
         id="path59"
         d="m 2729.39,2364.52 c 46.91,0 84.95,38.02 84.95,84.93 v 0.01 c 0,46.91 -38.04,84.95 -84.95,84.95 -52.47,0 -119.59,0 -172.07,0 -46.91,0 -84.93,-38.04 -84.93,-84.95 v -0.01 c 0,-46.91 38.02,-84.93 84.93,-84.93 52.48,0 119.6,0 172.07,0"
         style="fill:#ec591b;fill-opacity:1;fill-rule:evenodd;stroke:none"
         transform="matrix(0.13333333,0,0,-0.13333333,0,664.97333)" />
      <path
         id="path60"
         d="m 1575.35,2129 c 31.27,0 61.28,12.44 83.4,34.55 22.11,22.11 34.55,52.11 34.55,83.39 0,42.63 0,90.75 0,133.38 0,31.28 -12.44,61.28 -34.55,83.41 -22.12,22.11 -52.13,34.54 -83.4,34.54 v 0 c -31.28,0 -61.28,-12.43 -83.41,-34.54 -22.12,-22.13 -34.53,-52.13 -34.53,-83.41 0,-42.63 0,-90.75 0,-133.38 0,-31.28 12.41,-61.28 34.53,-83.39 22.13,-22.11 52.13,-34.55 83.41,-34.55 v 0"
         style="fill:#ec591b;fill-opacity:1;fill-rule:evenodd;stroke:none"
         transform="matrix(0.13333333,0,0,-0.13333333,0,664.97333)" />
    </g>
  </g>
</svg>
